# xmcd
#
# Track frame offsets: 
#        150
#        23071
#        44169
#
# Disc length: 883 seconds
#
# Revision: 1
# Processed by: cddbd v1.5.2PL0 Copyright (c) Steve Scherf et al.
# Submitted via: ExactAudioCopy v0.99pb5
#
DISCID=21037103
DTITLE=Shahin and Simon - Do The Right Thing (Remix)
DYEAR=1996
DGENRE=Trance
TTITLE0=Do The Right Thing (Dune Remix)
TTITLE1=Do The Right Thing (Montini Experience Remix)
TTITLE2=Do The Right Thing (Shahin and Simon Hardtrance Remix)
EXTD=
EXTT0=
EXTT1=
EXTT2=
PLAYORDER=
